# xmcd CD database file
#
# Track frame offsets:
#	150
#	16732
#	38420
#	62607
#
# Disc length: 1147 seconds
#
# Revision: 0
# Processed by: cddbd v1.5.1PL0 Copyright (c) Steve Scherf et al.
# Submitted via: CDex 1.50
#
DISCID=20047904
DTITLE=FEEL SO BAD - 曖昧な太陽(MAD GREEN)
DYEAR=1999
DGENRE=Rock
TTITLE0=曖昧な太陽
TTITLE1=AM 8:58(LIVE '96)
TTITLE2=口唇に銃を押しあてて(LIVE '99)
TTITLE3=I HATE YOU〜奴らが嫌いだ〜(LIVE '97)
EXTD=YEAR: 1999
EXTT0=
EXTT1=
EXTT2=
EXTT3=
PLAYORDER=
